<svg aria-hidden="true" style="position: absolute; width: 0; height: 0; overflow: hidden;" version="1.1" xmlns="http://www.w3.org/2000/svg" xmlns:xlink="http://www.w3.org/1999/xlink">
<defs>
<symbol id="icon-close" viewBox="0 0 32 32">
<path fill="#fff" style="fill: var(--color1, #fff)" d="M25.333 8.547l-1.88-1.88-7.453 7.453-7.453-7.453-1.88 1.88 7.453 7.453-7.453 7.453 1.88 1.88 7.453-7.453 7.453 7.453 1.88-1.88-7.453-7.453z"></path>
</symbol>
<symbol id="icon-calendar" viewBox="0 0 32 32">
<path fill="#fff" style="fill: var(--color1, #fff)" d="M26.667 4h-1.333v-2.667h-2.667v2.667h-13.333v-2.667h-2.667v2.667h-1.333c-1.467 0-2.667 1.2-2.667 2.667v21.333c0 1.467 1.2 2.667 2.667 2.667h21.333c1.467 0 2.667-1.2 2.667-2.667v-21.333c0-1.467-1.2-2.667-2.667-2.667zM26.667 28h-21.333v-17.333h21.333v17.333z"></path>
</symbol>
<symbol id="icon-explore" viewBox="0 0 32 32">
<path fill="#fff" style="fill: var(--color1, #fff)" d="M16 14.533c-0.813 0-1.467 0.653-1.467 1.467s0.653 1.467 1.467 1.467c0.813 0 1.467-0.653 1.467-1.467s-0.653-1.467-1.467-1.467zM16 2.667c-7.36 0-13.333 5.973-13.333 13.333s5.973 13.333 13.333 13.333 13.333-5.973 13.333-13.333-5.973-13.333-13.333-13.333zM18.92 18.92l-10.92 5.080 5.080-10.92 10.92-5.080-5.080 10.92z"></path>
</symbol>
<symbol id="icon-flare" viewBox="0 0 32 32">
<path fill="#fff" style="fill: var(--color1, #fff)" d="M9.333 14.667h-8v2.667h8v-2.667zM12.227 10.347l-2.827-2.827-1.88 1.88 2.827 2.827 1.88-1.88zM17.333 1.333h-2.667v8h2.667v-8zM24.48 9.4l-1.88-1.88-2.827 2.827 1.88 1.88 2.827-2.827zM22.667 14.667v2.667h8v-2.667h-8zM16 12c-2.213 0-4 1.787-4 4s1.787 4 4 4 4-1.787 4-4-1.787-4-4-4zM19.773 21.653l2.827 2.827 1.88-1.88-2.827-2.827-1.88 1.88zM7.52 22.6l1.88 1.88 2.827-2.827-1.88-1.88-2.827 2.827zM14.667 30.667h2.667v-8h-2.667v8z"></path>
</symbol>
<symbol id="icon-menu" viewBox="0 0 32 32">
<path fill="#fff" style="fill: var(--color1, #fff)" d="M4 24h24v-2.667h-24v2.667zM4 17.333h24v-2.667h-24v2.667zM4 8v2.667h24v-2.667h-24z"></path>
</symbol>
<symbol id="icon-near_me" viewBox="0 0 32 32">
<path fill="#fff" style="fill: var(--color1, #fff)" d="M28 4l-24 10.040v1.307l9.12 3.533 3.52 9.12h1.307l10.053-24z"></path>
</symbol>
<symbol id="icon-search" viewBox="0 0 32 32">
<path fill="#fff" style="fill: var(--color1, #fff)" d="M20.667 18.667h-1.053l-0.373-0.36c1.301-1.502 2.093-3.475 2.093-5.634 0-0.002 0-0.004 0-0.006v0c0-4.786-3.88-8.667-8.667-8.667s-8.667 3.88-8.667 8.667c0 4.786 3.88 8.667 8.667 8.667v0c2.147 0 4.12-0.787 5.64-2.093l0.36 0.373v1.053l6.667 6.653 1.987-1.987-6.653-6.667zM12.667 18.667c-3.32 0-6-2.68-6-6s2.68-6 6-6 6 2.68 6 6-2.68 6-6 6z"></path>
</symbol>
<symbol id="icon-today" viewBox="0 0 32 32">
<path fill="#fff" style="fill: var(--color1, #fff)" d="M25.333 4h-1.333v-2.667h-2.667v2.667h-10.667v-2.667h-2.667v2.667h-1.333c-1.48 0-2.653 1.2-2.653 2.667l-0.013 18.667c0 1.473 1.194 2.667 2.667 2.667v0h18.667c1.467 0 2.667-1.2 2.667-2.667v-18.667c0-1.467-1.2-2.667-2.667-2.667zM25.333 25.333h-18.667v-14.667h18.667v14.667zM9.333 13.333h6.667v6.667h-6.667z"></path>
</symbol>
<symbol id="icon-clock" viewBox="0 0 32 32">
<path fill="#fff" style="fill: var(--color1, #fff)" d="M16 2.667c-7.333 0-13.333 6-13.333 13.333s6 13.333 13.333 13.333 13.333-6 13.333-13.333-6-13.333-13.333-13.333zM21.6 21.6l-6.933-4.267v-8h2v6.933l6 3.6-1.067 1.733z"></path>
</symbol>
<symbol id="icon-sunny" viewBox="0 0 32 32">
<path fill="#fff" style="fill: var(--color1, #fff)" d="M9.013 6.453l-2.4-2.387-1.88 1.88 2.387 2.387 1.893-1.88zM5.333 14h-4v2.667h4v-2.667zM17.333 0.733h-2.667v3.933h2.667v-3.933zM27.267 5.947l-1.88-1.88-2.387 2.387 1.88 1.88 2.387-2.387zM22.987 24.213l2.387 2.4 1.88-1.88-2.4-2.387-1.867 1.867zM26.667 14v2.667h4v-2.667h-4zM16 7.333c-4.413 0-8 3.587-8 8s3.587 8 8 8 8-3.587 8-8-3.587-8-8-8zM14.667 29.933h2.667v-3.933h-2.667v3.933zM4.733 24.72l1.88 1.88 2.387-2.4-1.88-1.88-2.387 2.4z"></path>
</symbol>
</defs>
</svg>
